# xmcd
#
# Track frame offsets:
#	182
#	4667
#	18085
#	35232
#	48445
#	64010
#	81697
#	94230
#	110025
#	127465
#	139422
#	151045
#	161935
#	178897
#	198132
#	213867
#
# Disc length: 2881 seconds
#
# Revision: 0
# Processed by: cddbd v1.4PL0 Copyright (c) Steve Scherf et al.
# Submitted via: dBpowerAMP V4.0
#
DISCID=ea0b3f10
DTITLE=Various Artist - Farther Down the Road 1994
DYEAR=1900
DGENRE=Country
TTITLE0=Introduction
TTITLE1=Brooks and Dunn - We'll Burn That Bridge
TTITLE2=Joe Diffie - Prop Me Up Beside the Jukebox (If I Die)
TTITLE3=Lorrie Morgan - Except for Monday
TTITLE4=Confederate Railroad - She Never Cried
TTITLE5=Clint Black - State of Mind
TTITLE6=Tracy Lawrence - My Second Home
TTITLE7=Aaron Tippin - Working Man's Ph.D.
TTITLE8=John Anderson - When it Comes to You
TTITLE9=Tanya Tucker - It's a Little Too Late
TTITLE10=Vince Gill - Take Your Memory With You
TTITLE11=Alan Jackson - She's Got the Rhythm (And I Got the Blues)
TTITLE12=Pam Tillis - Do You Know Where Your Man Is
TTITLE13=Hal Ketchum - Mama Knows the Highway
TTITLE14=Radney Foster - Nobody Wins
TTITLE15=Farther Down the Road
EXTD=
EXTT0=
EXTT1=
EXTT2=
EXTT3=
EXTT4=
EXTT5=
EXTT6=
EXTT7=
EXTT8=
EXTT9=
EXTT10=
EXTT11=
EXTT12=
EXTT13=
EXTT14=
EXTT15=
PLAYORDER=
